<svg width="200" height="40" viewBox="0 0 200 40" fill="none" xmlns="http://www.w3.org/2000/svg">
  <g transform="translate(0,2) scale(0.5)">
    <defs>
      <linearGradient id="dc_grad_dark" x1="87.9384" y1="229.845" x2="235.049" y2="172.758" gradientUnits="userSpaceOnUse">
        <stop stop-color="#4A7AFF"/>
        <stop offset="1" stop-color="#074DEB"/>
      </linearGradient>
    </defs>
    <rect width="72" height="72" rx="36" fill="url(#dc_grad_dark)"/>
    <path d="M35.2819 17.4733H25.8392L19.3846 37.9125L24.4048 36.2391L20.4604 54.5268L33.6085 29.7846H30.1422L35.2819 17.4733Z" fill="white"/>
    <path d="M37.9995 49.5831H26.2953L29.7308 43.3208H37.1262C39.4674 43.3208 41.9117 42.9195 43.6068 41.3046C46.7701 38.291 46.8119 34.4182 46.2955 32.5405C45.9584 30.4335 44.2666 28.8081 42.5175 27.7058C40.5426 26.4613 38.1507 26.2144 35.8165 26.2144H34.8215L37.4062 20.5868C48.3321 20.5868 52.0293 28.864 52.5121 33.0026C53.5085 42.7531 47.0879 47.4014 42.3561 49.0226C40.9607 49.5007 39.4746 49.5831 37.9995 49.5831Z" fill="white"/>
  </g>
  <text
    x="44"
    y="27"
    font-family="system-ui, -apple-system, 'Segoe UI', Roboto, 'Helvetica Neue', Arial, sans-serif"
    font-size="20"
    font-weight="700"
    fill="#f8fafc"
  >Dancity</text>
</svg>
